<svg xmlns="http://www.w3.org/2000/svg" width="120" height="120"><path fill="#FEBE34" d="M60 0C26.86 0 0 26.86 0 60s26.86 60 60 60 60-26.86 60-60S93.14 0 60 0zm0 79.77c-10.92 0-19.77-8.85-19.77-19.77S49.08 40.24 60 40.24 79.77 49.09 79.77 60c0 10.92-8.85 19.77-19.77 19.77z"/><path fill-rule="evenodd" clip-rule="evenodd" fill="#FE4DD1" d="M112.57 47.48c-1.41-1.25-.51-2.77-.32-4.21.71-5.64-1.16-9.56-6.13-11.84-1.86-.85-2.79-1.99-3.64-3.72-4.51-9.18-13.93-13.24-21.01-19.75-.84-.77-2.57-.53-3.83-.91-7.06-2.11-14.3-.02-21.69-1.71-9.83-2.25-18.71 3.67-27.04 8.89-.13.08-.24.24-.31.38-1.72 3.61-4.99 5.16-8.47 6.51-2.5.97-5.55 2.12-5.76 4.98-.48 6.59-3.52 11.81-7.21 16.96-1.52 2.13-2.03 4.91-1.86 7.64.12 1.86.13 3.74-.73 5.39-1.64 3.14-.95 6.19.34 9.09.77 1.74 1.15 3.43 1.25 5.27.28 4.99 2.15 9.14 5.84 12.69 2.96 2.85 5.8 5.99 7.95 9.47 3.71 6 6.99 12.07 15.37 12.11 1.09.01 2.24 1.3 3.24 2.14 5.31 4.44 10.6 8.45 18.32 6.07 3.28-1.01 6.58.25 9.47 2.18 3.06.12 6.1-.01 9.08-.83 1.93-.96 3.97-1.74 5.77-2.91 3.13-2.05 7.66-2.47 9.09-6.48 1.4-3.93 4.11-6.39 7.45-8.31 4.56-2.62 6.9-6.7 9.34-11.23 3.24-6.02 5.54-12.29 7.04-18.79 1.44-6.37 5.06-13.22-1.55-19.08zm-30.05 8.13c-.09 1.39-.7 2.71-1.44 4.02-.12.4-.33.68-.59.73l-1.38 5.39c3.1 4.5 2.95 12.27-2.39 15.05-4.27 2.22-8.65 1.16-13 1.12-.03.03-.06.06-.08.06-.21.07-.43.12-.64.18-.06.17-.13.28-.2.28-5.31 1.63-10.93 2.51-16.2 1.23-6.16-1.51-11.28-10.8-10.78-17.64.28-3.82.2-7.77 1.21-11.4 1.65-5.97 4.22-11.36 9.77-14.21 1.28-.76 2.72-1.38 4.37-1.81 4.41-1.17 8.32-2.86 13.42-2.29 9.07.99 15.26 10.94 17.41 14.63.54.45.91 1.49.91 2.69.01.76-.15 1.45-.39 1.97z"/><path fill-rule="evenodd" clip-rule="evenodd" fill="#62A643" d="M84.78 96.3c-.39 2.46-1.54 4.3-4.1 4.93-1.29.32-2.83.62-3.56-.71-1.03-1.89.92-2.09 1.98-2.51 1.37-.55 1.99-1.44 2.27-2.85.21-1.03 1-1.74 2.18-1.29 1.08.41 1.27 1.39 1.23 2.43zm-52.12-.27c-.09 1.26.81 1.82 1.85 1.73 1.43-.13 2.46.21 3.38 1.37.71.9 1.45 2.71 2.97 1.18 1.07-1.08.34-2.47-.33-3.62-1.33-2.27-3.42-2.85-5.89-2.53-1 .26-1.89.71-1.98 1.87zm-18-30.46c1.14-.55 1.17-1.61.57-2.47-.83-1.17-1.05-2.23-.51-3.61.42-1.06 1.62-2.61-.46-3.16-1.47-.39-2.31.94-2.96 2.09-1.3 2.29-.76 4.39.76 6.36.72.75 1.56 1.29 2.6.79zm21.52-40.64c1.08.64 1.99.08 2.37-.89.52-1.34 1.28-2.11 2.73-2.42 1.12-.24 3.07-.09 2.38-2.13-.49-1.44-2.06-1.4-3.39-1.31-2.63.18-4.08 1.8-4.88 4.15-.22 1.01-.21 2.01.79 2.6zm43.52 2.53c.06 1.26 1.03 1.71 2.05 1.48 1.41-.31 2.47-.1 3.52.94.81.8 1.77 2.51 3.09.81.93-1.2.03-2.5-.77-3.55-1.6-2.09-3.75-2.41-6.16-1.79-.96.4-1.79.96-1.73 2.11zm24.26 39.61c1.14-.54 1.18-1.61.58-2.47-.83-1.18-1.05-2.24-.49-3.61.43-1.06 1.63-2.6-.45-3.17-1.47-.39-2.32.94-2.97 2.08-1.31 2.28-.77 4.39.73 6.37.71.76 1.55 1.3 2.6.8z"/><path fill-rule="evenodd" clip-rule="evenodd" fill="#FFF" d="M54.74 22.02c-.05-2.49.76-4.5 3.17-5.57 1.21-.54 2.68-1.11 3.63.07 1.35 1.68-.53 2.22-1.5 2.82-1.26.78-1.7 1.77-1.73 3.2-.02 1.05-.68 1.89-1.92 1.65-1.15-.2-1.5-1.14-1.65-2.17zm34.61 23.34c-.06 1.26.86 1.8 1.9 1.67 1.43-.17 2.46.13 3.42 1.27.73.88 1.53 2.67 3 1.1 1.04-1.11.27-2.48-.43-3.61-1.39-2.23-3.5-2.75-5.96-2.36-1 .29-1.87.77-1.93 1.93zm5.13 45.18c1.15-.52 1.21-1.58.63-2.45-.8-1.2-.99-2.26-.41-3.62.45-1.05 1.7-2.57-.38-3.18-1.46-.43-2.34.88-3.02 2.01-1.37 2.25-.88 4.37.58 6.38.71.76 1.54 1.33 2.6.86zm-64.66-5.97c.78-1 .33-1.97-.59-2.46-1.27-.68-1.94-1.53-2.06-3.01-.09-1.14.29-3.06-1.82-2.63-1.49.3-1.65 1.87-1.72 3.2-.15 2.63 1.27 4.27 3.51 5.37.97.33 1.96.44 2.68-.47zm-7.61-46.9c-.18 1.25.69 1.87 1.74 1.84 1.44-.04 2.44.37 3.28 1.59.65.94 1.27 2.8 2.89 1.38 1.14-1 .5-2.45-.09-3.63-1.18-2.36-3.23-3.07-5.71-2.92-1.03.2-1.95.59-2.11 1.74z"/></svg>