<?xml version="1.0" encoding="utf-8"?><svg viewBox="0 0 250 250" xmlns="http://www.w3.org/2000/svg" xmlns:xlink="http://www.w3.org/1999/xlink"><style>:root>svg{display:none}:root>svg:target{display:block}</style><svg viewBox="0 0 24 24" id="css--arrow" xmlns="http://www.w3.org/2000/svg"><path d="M5 3l3.057-3L20 12 8.057 24 5 21l9-9z"/></svg><svg viewBox="0 0 250 250" id="css--cart" xmlns="http://www.w3.org/2000/svg"><g fill="#fff"><path d="M106.888 173.035c-10.134 0-18.35 8.738-18.35 19.368 0 10.63 8.216 19.367 18.35 19.367 10.134 0 18.35-8.737 18.35-19.367s-8.216-19.368-18.35-19.368zm0 30.144c-5.615 0-10.134-4.806-10.134-10.776s4.52-10.776 10.134-10.776c5.615 0 10.134 4.805 10.134 10.776.137 5.97-4.52 10.776-10.134 10.776zm75.731-30.144c-10.134 0-18.351 8.738-18.351 19.368 0 10.63 8.217 19.367 18.35 19.367 10.135 0 18.351-8.737 18.351-19.367s-8.216-19.368-18.35-19.368zm0 30.144c-5.615 0-10.134-4.806-10.134-10.776s4.519-10.776 10.134-10.776c5.614 0 10.134 4.805 10.134 10.776 0 5.97-4.52 10.776-10.134 10.776z"/><path d="M185.084 161.24H89.633c-2.054 0-3.835-.874-5.204-2.33-1.37-1.456-2.054-3.495-2.054-5.68.137-4.077 3.56-7.426 7.532-7.426H191.93c1.917 0 3.56-1.456 3.971-3.495l12.462-64.364c.274-1.31 0-2.621-.821-3.64-.822-1.02-1.918-1.602-3.15-1.602H74.295l-8.627-32.765c-.548-1.893-2.055-3.204-3.972-3.204h-20.13c-2.192 0-4.11 1.893-4.11 4.369 0 2.33 1.781 4.369 4.11 4.369H58.82l24.377 93.488c-5.067 2.621-8.628 7.864-8.902 14.125-.137 4.514 1.37 8.737 4.382 11.941a14.772 14.772 0 0011.093 4.951h95.45c6.574 0 12.6 3.64 15.886 9.611.822 1.31 2.054 2.185 3.56 2.185.685 0 1.37-.146 2.055-.583 1.917-1.165 2.602-3.786 1.37-5.97-4.794-8.592-13.558-13.98-23.007-13.98zM76.624 81.586H199.6l-10.819 55.772H91.276L76.623 81.586z"/></g></svg></svg>